<svg width="1920" height="355" viewBox="0 0 1920 355" fill="none" xmlns="http://www.w3.org/2000/svg">
<path opacity="0.8" d="M0 175.667L64 183.092C128 191.078 256 205.089 384 227.926C512 249.922 640 280.745 768 257.908C896 235.911 1024 160.255 1152 160.676C1280 160.255 1408 235.911 1536 235.491C1664 235.911 1792 160.255 1856 123.408L1920 86V355H1856C1792 355 1664 355 1536 355C1408 355 1280 355 1152 355C1024 355 896 355 768 355C640 355 512 355 384 355C256 355 128 355 64 355H0V175.667Z" fill="url(#paint0_linear_1263_133)"/>
<path opacity="0.2" d="M436.681 93.0011C290.091 2.12911 84.4813 -5.36746 0 2.24326V355H1920V138.665C1778.59 184.329 1572.45 107.271 1438.51 27.9293C1304.56 -51.4125 1029.21 73.0228 1009.79 93.0011C990.373 112.979 619.917 206.591 436.681 93.0011Z" fill="#17D0DD"/>
<path opacity="0.2" d="M459.683 75.869C306.921 36.5547 89.5767 105.355 0 144.669V355H1920V14.9316C1495.22 -46.0057 1274.35 97.9831 1234.46 117.64C1194.58 137.297 1087.88 179.069 916.375 193.32C744.866 207.572 650.636 125.012 459.683 75.869Z" fill="#17D0DD"/>
<defs>
<linearGradient id="paint0_linear_1263_133" x1="303.916" y1="301.788" x2="458.004" y2="-118.232" gradientUnits="userSpaceOnUse">
<stop stop-color="#43E3EF"/>
<stop offset="1" stop-color="#20C0CB"/>
</linearGradient>
</defs>
</svg>
